<svg width="800" height="800" viewBox="0 0 800 800" fill="none" xmlns="http://www.w3.org/2000/svg">
<g clip-path="url(#clip0_152_535)">
<g filter="url(#filter0_d_152_535)">
<path d="M400 40C598.823 40 760 201.177 760 400C760 598.823 598.823 760 400 760C201.177 760 40 598.823 40 400C40 201.177 201.177 40 400 40ZM373.324 661.888C370.941 667.361 365.54 670.9 359.571 670.9H287.297C272.161 670.9 267.523 689.12 281.565 694.767C318.164 709.486 358.136 717.587 400 717.587C441.864 717.587 481.836 709.486 518.435 694.767C532.477 689.12 527.839 670.9 512.703 670.9H440.39C434.44 670.9 429.053 667.384 426.659 661.939L413.647 632.35C408.382 620.377 391.384 620.408 386.163 632.4L373.324 661.888ZM600.498 613.349C596.675 627.101 611.79 637.086 621.997 627.108C680.977 569.447 717.587 488.999 717.587 400C717.587 372.311 714.043 345.449 707.384 319.844C703.794 306.041 685.718 306.804 681.898 320.545L600.498 613.349ZM118 320.901C114.2 307.135 96.1051 306.362 92.5264 320.188C85.9254 345.689 82.4131 372.435 82.4131 400C82.4131 488.447 118.569 568.449 176.907 626.033C187.078 636.072 202.241 626.125 198.439 612.349L118 320.901ZM245.735 613.139C247.547 619.619 253.452 624.1 260.181 624.1H332.708C338.607 624.1 343.959 620.642 346.383 615.263L386.325 526.642C391.635 514.86 408.365 514.86 413.675 526.642L453.617 615.263C456.041 620.642 461.393 624.1 467.292 624.1H540.663C547.418 624.1 553.339 619.585 555.128 613.071L644.991 285.771C647.613 276.223 640.428 266.8 630.527 266.8H613.358C606.454 266.8 600.441 271.513 598.792 278.219L524.307 581.181C522.659 587.886 516.646 592.6 509.741 592.6H491C484.944 592.6 479.483 588.959 477.154 583.369L413.846 431.431C408.718 419.123 391.282 419.123 386.154 431.431L322.846 583.369C320.517 588.959 315.056 592.6 309 592.6H290.244C283.346 592.6 277.364 588.002 275.707 581.306C264.676 536.705 223.604 370.743 200.343 278.107C198.668 271.44 192.682 266.8 185.808 266.8H168.67C158.739 266.8 151.55 276.275 154.224 285.839L245.735 613.139ZM293.474 429.917C292.513 432.71 292.398 435.725 293.143 438.583L296.949 453.172C300.577 467.078 319.796 468.415 325.314 455.145L379.957 323.741C382.284 318.146 387.748 314.5 393.807 314.5H406.193C412.252 314.5 417.716 318.146 420.043 323.741L473.88 453.207C479.478 466.669 499.049 465.039 502.343 450.836L505.245 438.32C505.87 435.626 505.737 432.812 504.863 430.188L453.819 277.056C451.778 270.931 446.045 266.8 439.589 266.8H360.301C353.898 266.8 348.201 270.865 346.118 276.919L293.474 429.917ZM400 82.4131C301.249 82.4131 213.024 127.484 154.776 198.177C147.106 207.486 154.068 220.9 166.13 220.9H225.484C232.322 220.9 238.295 225.525 240.007 232.146L258.738 304.607C262.467 319.03 282.665 319.787 287.462 305.684L312.841 231.07C314.909 224.989 320.619 220.9 327.042 220.9H472.958C479.381 220.9 485.091 224.989 487.159 231.07L512.538 305.684C517.335 319.787 537.533 319.03 541.262 304.607L559.993 232.146C561.705 225.525 567.678 220.9 574.516 220.9H633.87C645.932 220.9 652.894 207.486 645.224 198.177C586.976 127.484 498.751 82.4131 400 82.4131Z" fill="#336633"/>
</g>
</g>
<defs>
<filter id="filter0_d_152_535" x="-4" y="-4" width="808" height="808" filterUnits="userSpaceOnUse" color-interpolation-filters="sRGB">
<feFlood flood-opacity="0" result="BackgroundImageFix"/>
<feColorMatrix in="SourceAlpha" type="matrix" values="0 0 0 0 0 0 0 0 0 0 0 0 0 0 0 0 0 0 127 0" result="hardAlpha"/>
<feOffset/>
<feGaussianBlur stdDeviation="22"/>
<feComposite in2="hardAlpha" operator="out"/>
<feColorMatrix type="matrix" values="0 0 0 0 0 0 0 0 0 0 0 0 0 0 0 0 0 0 1 0"/>
<feBlend mode="normal" in2="BackgroundImageFix" result="effect1_dropShadow_152_535"/>
<feBlend mode="normal" in="SourceGraphic" in2="effect1_dropShadow_152_535" result="shape"/>
</filter>
<clipPath id="clip0_152_535">
<rect width="800" height="800" fill="white"/>
</clipPath>
</defs>
</svg>
