<svg width="80" height="80" viewBox="0 0 80 80" fill="none" xmlns="http://www.w3.org/2000/svg">
<path fill-rule="evenodd" clip-rule="evenodd" d="M31.6866 27.1051V20.9865C31.6866 19.8715 31.7443 19.4997 31.916 18.9277C32.3748 17.3552 33.9238 16.1832 35.759 16.1832C37.5941 16.1832 39.1427 17.3838 39.6015 18.9277C39.7737 19.4997 39.8314 19.8715 39.8314 20.9865V30.4216C39.8314 30.9936 39.8314 31.5651 39.7164 32.0801C39.4012 33.5094 38.1107 34.7965 36.6766 35.1108C36.1606 35.2249 35.5868 35.2249 35.0131 35.2249H25.5496C24.4313 35.2249 24.0583 35.1679 23.4846 34.9962C21.936 34.5388 20.7318 32.9949 20.7318 31.1652C20.7318 29.3351 21.936 27.7912 23.4846 27.3338C24.0583 27.1621 24.4313 27.1051 25.5496 27.1051H31.6866ZM65.4117 69.8788H14.6521V25.3039C14.6521 24.7319 14.8529 24.246 15.2545 23.8456L28.4173 10.7217C28.8189 10.3219 29.3063 10.1217 29.88 10.1217H65.4117V69.8788ZM71.1762 0.0570484C70.9182 0.0285237 70.5739 0 69.9143 0H28.5318C28.0735 0 27.6147 0.0285237 27.299 0.0570484C25.4061 0.228706 23.714 1.11501 22.3662 2.45873L6.96612 17.8126C5.61888 19.1569 4.7294 20.8434 4.55773 22.7306C4.52861 23.0449 4.5 23.5023 4.5 23.9597V74.3674C4.5 75.025 4.52861 75.3683 4.55773 75.6255C4.78662 77.77 6.73673 79.7137 8.88762 79.9424C9.14614 79.9715 9.48998 80 10.1496 80H69.9143C70.5739 80 70.9182 79.9715 71.1762 79.9424C73.3271 79.7137 75.2772 77.77 75.5066 75.6255C75.5347 75.3683 75.5638 75.025 75.5638 74.3674V5.6326C75.5638 4.97501 75.5347 4.6317 75.5066 4.37446C75.2772 2.23002 73.3271 0.285755 71.1762 0.0570484Z" fill="white"/>
</svg>
