<svg width="80" height="80" viewBox="0 0 80 80" fill="none" xmlns="http://www.w3.org/2000/svg">
<path d="M71.8099 23.6829C71.8586 24.3881 71.8586 25.0934 71.8586 25.8051C71.8586 47.4927 55.3484 72.5051 25.1586 72.5051V72.4921C16.2405 72.5051 7.50762 69.9506 0 65.134C1.29677 65.29 2.60004 65.368 3.90656 65.3713C11.2972 65.3778 18.4765 62.898 24.2909 58.3316C17.2675 58.1984 11.1087 53.6191 8.95714 46.9337C11.4174 47.4082 13.9525 47.3107 16.3673 46.651C8.71014 45.1039 3.2013 38.3763 3.2013 30.5632C3.2013 30.4917 3.2013 30.4235 3.2013 30.3552C5.48284 31.626 8.03738 32.3312 10.6504 32.4092C3.43855 27.5894 1.21552 17.9953 5.57059 10.4941C13.9037 20.7481 26.1987 26.9817 39.3971 27.6414C38.0743 21.9408 39.8814 15.9672 44.1454 11.9599C50.756 5.74583 61.153 6.06433 67.3671 12.6717C71.0429 11.9469 74.5659 10.5982 77.79 8.68712C76.5647 12.4864 74.0004 15.7137 70.5749 17.7645C73.8282 17.381 77.0067 16.51 80 15.1807C77.7965 18.4828 75.0209 21.3591 71.8099 23.6829Z" fill="white"/>
</svg>
