<svg width="300" height="300" viewBox="0 0 300 300" fill="none" xmlns="http://www.w3.org/2000/svg">
<g filter="url(#filter0_d_321_9)">
<path fill-rule="evenodd" clip-rule="evenodd" d="M150 268.11C215.23 268.11 268.11 215.23 268.11 150C268.11 84.7695 215.23 31.8898 150 31.8898C84.7695 31.8898 31.8898 84.7695 31.8898 150C31.8898 181.128 43.9315 209.443 63.6109 230.542C63.9601 230.917 63.9525 231.501 63.5904 231.863V231.863C63.2144 232.239 62.602 232.231 62.2392 231.842C42.2387 210.405 30 181.632 30 150C30 83.7258 83.7258 30 150 30C216.274 30 270 83.7258 270 150C270 216.274 216.274 270 150 270C124.773 270 101.364 262.216 82.0442 248.918C81.56 248.584 81.5003 247.894 81.916 247.478V247.478C82.2404 247.154 82.7503 247.109 83.1281 247.369C102.141 260.452 125.176 268.11 150 268.11ZM97.6565 225.363C73.843 208.793 58.2502 181.218 58.2502 150C58.2502 99.328 99.328 58.2502 150 58.2502C171.817 58.2502 191.854 65.8646 207.601 78.5806C208.035 78.931 208.065 79.5795 207.671 79.9739V79.9739C207.326 80.3182 206.777 80.3444 206.398 80.0386C190.978 67.5923 171.359 60.14 150 60.14C100.372 60.14 60.14 100.372 60.14 150C60.14 180.573 75.4083 207.58 98.7358 223.812C103.204 226.922 107.102 220.341 103.679 216.108C95.8933 206.476 89.9516 195.096 86.5395 182.362C83.1286 169.632 82.5833 156.81 84.5083 144.58C85.6815 137.125 95.5553 136.501 100.049 142.563C121.718 171.793 159.79 186.378 197.068 176.39C200.562 175.453 200.379 170.302 197.144 168.683C185.434 162.819 176.19 152.164 172.534 138.52C171.648 135.213 171.134 131.894 170.966 128.607C170.582 121.071 180.493 120.005 186.133 125.019C197.665 135.27 213.966 139.707 229.985 135.415C231.621 134.977 233.215 134.458 234.762 133.864C236.781 133.089 237.858 130.925 237.35 128.823C234.714 117.911 230.086 107.776 223.873 98.8238C223.61 98.445 223.654 97.932 223.98 97.606V97.606C224.394 97.1922 225.08 97.2492 225.414 97.7299C231.764 106.875 236.494 117.23 239.187 128.379C239.908 131.362 238.385 134.498 235.439 135.628C233.83 136.246 232.174 136.785 230.474 137.24C213.816 141.704 196.865 137.086 184.877 126.431C182.483 124.302 179.182 123.492 176.635 123.965C175.382 124.198 174.416 124.718 173.792 125.419C173.192 126.093 172.78 127.072 172.853 128.511C173.014 131.666 173.508 134.853 174.359 138.03C177.87 151.132 186.743 161.361 197.99 166.993C200.333 168.166 201.501 170.567 201.519 172.777C201.538 175.028 200.329 177.472 197.557 178.215C159.505 188.411 120.646 173.52 98.5312 143.689C96.6967 141.214 93.7665 140.119 91.2287 140.382C88.7675 140.638 86.8083 142.121 86.3751 144.873C84.4904 156.848 85.0237 169.403 88.3649 181.873C91.7072 194.347 97.5259 205.49 105.149 214.92C107.409 217.716 107.263 221.302 105.774 223.708C105.021 224.924 103.855 225.951 102.353 226.344C100.804 226.749 99.1608 226.41 97.6565 225.363Z" fill="#2A2033"/>
<path d="M97.6565 225.363L99.9411 222.08L99.9411 222.08L97.6565 225.363ZM98.7358 223.812L101.02 220.529L101.02 220.529L98.7358 223.812ZM103.679 216.108L106.79 213.593L106.79 213.593L103.679 216.108ZM86.5395 182.362L90.4033 181.327L90.4032 181.327L86.5395 182.362ZM84.5083 144.58L88.4596 145.201L88.4596 145.201L84.5083 144.58ZM100.049 142.563L103.263 140.181L103.263 140.181L100.049 142.563ZM197.068 176.39L198.103 180.253L198.103 180.253L197.068 176.39ZM197.144 168.683L195.353 172.259L195.353 172.259L197.144 168.683ZM172.534 138.52L168.67 139.555L168.67 139.555L172.534 138.52ZM170.966 128.607L166.971 128.811L166.971 128.811L170.966 128.607ZM186.133 125.019L188.79 122.029L188.79 122.029L186.133 125.019ZM229.985 135.415L231.02 139.279L231.02 139.279L229.985 135.415ZM234.762 133.864L236.195 137.598L236.195 137.598L234.762 133.864ZM237.35 128.823L241.239 127.884L241.239 127.884L237.35 128.823ZM239.187 128.379L243.075 127.44L243.075 127.44L239.187 128.379ZM235.439 135.628L236.872 139.362L236.872 139.362L235.439 135.628ZM230.474 137.24L231.509 141.104L231.509 141.104L230.474 137.24ZM184.877 126.431L187.535 123.441L187.535 123.441L184.877 126.431ZM176.635 123.965L175.905 120.032L175.905 120.032L176.635 123.965ZM173.792 125.419L170.805 122.759L170.805 122.759L173.792 125.419ZM172.853 128.511L168.859 128.715L168.859 128.715L172.853 128.511ZM174.359 138.03L170.495 139.066L170.495 139.066L174.359 138.03ZM197.99 166.993L196.199 170.57L196.199 170.57L197.99 166.993ZM201.519 172.777L197.519 172.81L197.519 172.81L201.519 172.777ZM197.557 178.215L196.521 174.351L196.521 174.351L197.557 178.215ZM98.5312 143.689L101.744 141.307L101.744 141.307L98.5312 143.689ZM91.2287 140.382L91.642 144.361L91.642 144.361L91.2287 140.382ZM86.3751 144.873L82.4237 144.251L82.4237 144.251L86.3751 144.873ZM88.3649 181.873L92.2286 180.838L92.2286 180.838L88.3649 181.873ZM105.149 214.92L108.26 212.405L108.26 212.405L105.149 214.92ZM105.774 223.708L102.372 221.603L102.372 221.603L105.774 223.708ZM102.353 226.344L103.364 230.214L103.364 230.214L102.353 226.344ZM225.414 97.7299L228.7 95.4485L225.414 97.7299ZM83.1281 247.369L85.3956 244.074L83.1281 247.369ZM63.6109 230.542L66.536 227.814L63.6109 230.542ZM207.601 78.5806L210.114 75.4686L207.601 78.5806ZM223.873 98.8238L220.587 101.104L223.873 98.8238ZM82.0442 248.918L84.3121 245.623L82.0442 248.918ZM206.398 80.0386L203.886 83.1512L206.398 80.0386ZM264.11 150C264.11 213.021 213.021 264.11 150 264.11V272.11C217.44 272.11 272.11 217.44 272.11 150H264.11ZM150 35.8898C213.021 35.8898 264.11 86.9787 264.11 150H272.11C272.11 82.5604 217.44 27.8898 150 27.8898V35.8898ZM35.8898 150C35.8898 86.9787 86.9787 35.8898 150 35.8898V27.8898C82.5604 27.8898 27.8898 82.5604 27.8898 150H35.8898ZM66.536 227.814C47.52 207.426 35.8898 180.076 35.8898 150H27.8898C27.8898 182.18 40.3431 211.461 60.6858 233.271L66.536 227.814ZM26 150C26 182.684 38.6504 212.422 59.3144 234.571L65.1639 229.114C45.8271 208.387 34 180.579 34 150H26ZM150 26C81.5167 26 26 81.5167 26 150H34C34 85.935 85.935 34 150 34V26ZM274 150C274 81.5167 218.483 26 150 26V34C214.065 34 266 85.935 266 150H274ZM150 274C218.483 274 274 218.483 274 150H266C266 214.065 214.065 266 150 266V274ZM79.7763 252.213C99.7418 265.955 123.937 274 150 274V266C125.608 266 102.986 258.476 84.3121 245.623L79.7763 252.213ZM150 264.11C126.011 264.11 103.763 256.713 85.3956 244.074L80.8607 250.665C100.519 264.192 124.341 272.11 150 272.11V264.11ZM54.2502 150C54.2502 182.582 70.5298 211.361 95.3718 228.647L99.9411 222.08C77.1561 206.226 62.2502 179.853 62.2502 150H54.2502ZM150 54.2502C97.1189 54.2502 54.2502 97.1189 54.2502 150H62.2502C62.2502 101.537 101.537 62.2502 150 62.2502V54.2502ZM210.114 75.4686C193.682 62.1989 172.764 54.2502 150 54.2502V62.2502C170.87 62.2502 190.027 69.5303 205.088 81.6925L210.114 75.4686ZM208.911 76.926C192.805 63.9263 172.306 56.14 150 56.14V64.14C170.412 64.14 189.152 71.2582 203.886 83.1512L208.911 76.926ZM150 56.14C98.1625 56.14 56.14 98.1625 56.14 150H64.14C64.14 102.581 102.581 64.14 150 64.14V56.14ZM56.14 150C56.14 181.938 72.095 210.148 96.4512 227.096L101.02 220.529C78.7215 205.013 64.14 179.209 64.14 150H56.14ZM96.4512 227.096C98.3878 228.443 100.658 228.968 102.886 228.385C105.017 227.829 106.592 226.395 107.568 224.819C109.486 221.719 109.664 217.148 106.79 213.593L100.569 218.622C101.117 219.301 101.057 220.137 100.765 220.609C100.636 220.818 100.613 220.711 100.863 220.646C100.992 220.612 101.11 220.616 101.184 220.631C101.25 220.644 101.194 220.649 101.02 220.529L96.4512 227.096ZM106.79 213.593C99.3489 204.388 93.6677 193.51 90.4033 181.327L82.6758 183.397C86.2354 196.682 92.4378 208.564 100.569 218.622L106.79 213.593ZM90.4032 181.327C87.1398 169.148 86.62 156.89 88.4596 145.201L80.5569 143.958C78.5467 156.73 79.1174 170.117 82.6758 183.397L90.4032 181.327ZM88.4596 145.201C88.7215 143.538 89.7846 142.654 91.4468 142.481C93.2709 142.292 95.4622 143.093 96.8359 144.946L103.263 140.181C100.142 135.972 95.1498 134.054 90.6203 134.524C85.9287 135.012 81.4684 138.167 80.5569 143.958L88.4596 145.201ZM96.8359 144.946C119.449 175.449 159.186 190.681 198.103 180.253L196.032 172.526C160.394 182.075 123.986 168.136 103.263 140.181L96.8359 144.946ZM198.103 180.253C202.019 179.204 203.654 175.729 203.629 172.759C203.605 169.876 202.087 166.684 198.935 165.106L195.353 172.259C195.4 172.283 195.461 172.328 195.522 172.434C195.591 172.554 195.629 172.702 195.63 172.825C195.631 172.952 195.596 172.928 195.674 172.81C195.716 172.746 195.78 172.675 195.863 172.615C195.948 172.553 196.015 172.531 196.032 172.526L198.103 180.253ZM198.935 165.106C188.204 159.733 179.745 149.979 176.397 137.484L168.67 139.555C172.634 154.35 182.664 165.906 195.353 172.259L198.935 165.106ZM176.397 137.484C175.585 134.451 175.114 131.411 174.961 128.404L166.971 128.811C167.153 132.377 167.711 135.975 168.67 139.555L176.397 137.484ZM174.961 128.404C174.913 127.46 175.173 127.041 175.367 126.823C175.614 126.546 176.118 126.207 177.02 126.04C178.911 125.689 181.556 126.302 183.475 128.008L188.79 122.029C185.07 118.722 179.939 117.361 175.56 118.174C173.327 118.589 171.074 119.616 169.394 121.502C167.661 123.447 166.827 125.986 166.971 128.811L174.961 128.404ZM183.475 128.008C195.971 139.115 213.648 143.934 231.02 139.279L228.949 131.551C214.285 135.481 199.36 131.424 188.79 122.029L183.475 128.008ZM231.02 139.279C232.791 138.804 234.518 138.242 236.195 137.598L233.329 130.129C231.911 130.673 230.451 131.149 228.949 131.551L231.02 139.279ZM236.195 137.598C240.175 136.071 242.196 131.849 241.239 127.884L233.462 129.762C233.489 129.873 233.471 129.964 233.439 130.027C233.41 130.084 233.375 130.111 233.329 130.129L236.195 137.598ZM241.239 127.884C238.484 116.481 233.649 105.893 227.159 96.543L220.587 101.104C226.524 109.659 230.945 119.341 233.462 129.762L241.239 127.884ZM243.075 127.44C240.264 115.8 235.326 104.991 228.7 95.4485L222.129 100.011C228.202 108.758 232.724 118.66 235.299 129.319L243.075 127.44ZM236.872 139.362C241.786 137.477 244.244 132.279 243.075 127.44L235.299 129.319C235.571 130.444 234.984 131.518 234.006 131.894L236.872 139.362ZM231.509 141.104C233.344 140.612 235.133 140.03 236.872 139.362L234.006 131.894C232.527 132.461 231.004 132.957 229.438 133.377L231.509 141.104ZM182.22 129.421C195.17 140.932 213.497 145.93 231.509 141.104L229.438 133.377C214.134 137.477 198.559 133.241 187.535 123.441L182.22 129.421ZM177.365 127.898C178.669 127.656 180.726 128.093 182.22 129.421L187.535 123.441C184.239 120.512 179.696 119.329 175.905 120.032L177.365 127.898ZM176.779 128.08C176.688 128.181 176.781 128.006 177.365 127.898L175.905 120.032C173.984 120.389 172.144 121.255 170.805 122.759L176.779 128.08ZM176.848 128.307C176.833 128.018 176.873 127.916 176.867 127.937C176.864 127.945 176.855 127.967 176.837 127.999C176.819 128.03 176.799 128.057 176.779 128.08L170.805 122.759C169.438 124.294 168.737 126.332 168.859 128.715L176.848 128.307ZM178.223 136.995C177.445 134.091 176.995 131.183 176.848 128.307L168.859 128.715C169.034 132.149 169.571 135.615 170.495 139.066L178.223 136.995ZM199.781 163.416C189.513 158.275 181.425 148.946 178.223 136.995L170.495 139.066C174.314 153.317 183.973 164.448 196.199 170.57L199.781 163.416ZM205.519 172.744C205.49 169.266 203.664 165.361 199.781 163.416L196.199 170.57C197.001 170.971 197.511 171.867 197.519 172.81L205.519 172.744ZM198.592 182.079C203.558 180.748 205.549 176.327 205.519 172.744L197.519 172.81C197.523 173.239 197.403 173.618 197.24 173.867C197.111 174.064 196.922 174.244 196.521 174.351L198.592 182.079ZM95.3178 146.071C118.377 177.177 158.901 192.714 198.592 182.079L196.521 174.351C160.109 184.108 122.914 169.864 101.744 141.307L95.3178 146.071ZM91.642 144.361C92.8256 144.238 94.3559 144.773 95.3178 146.071L101.744 141.307C99.0376 137.655 94.7074 136 90.8155 136.404L91.642 144.361ZM90.3264 145.495C90.4092 144.969 90.5852 144.781 90.6785 144.699C90.8031 144.59 91.0859 144.419 91.642 144.361L90.8155 136.404C88.9103 136.602 86.9829 137.3 85.4042 138.684C83.7944 140.096 82.7741 142.025 82.4237 144.251L90.3264 145.495ZM92.2286 180.838C89.0349 168.919 88.527 156.928 90.3264 145.495L82.4237 144.251C80.4538 156.768 81.0125 169.888 84.5012 182.908L92.2286 180.838ZM108.26 212.405C100.981 203.402 95.4234 192.761 92.2286 180.838L84.5012 182.908C87.9911 195.933 94.0703 207.578 102.038 217.434L108.26 212.405ZM109.175 225.813C111.474 222.098 111.686 216.644 108.26 212.405L102.038 217.434C103.132 218.788 103.052 220.505 102.372 221.603L109.175 225.813ZM103.364 230.214C106.06 229.509 108.001 227.709 109.175 225.813L102.372 221.603C102.041 222.138 101.65 222.393 101.341 222.474L103.364 230.214ZM95.3718 228.647C97.692 230.261 100.524 230.956 103.364 230.214L101.341 222.474C101.084 222.541 100.629 222.559 99.9411 222.08L95.3718 228.647ZM226.808 100.434C225.483 101.759 223.236 101.607 222.129 100.011L228.7 95.4485C226.924 92.8917 223.304 92.625 221.151 94.7776L226.808 100.434ZM84.7444 250.307C83.6939 251.357 82.059 251.489 80.8607 250.665L85.3956 244.074C83.4415 242.73 80.7868 242.951 79.0876 244.65L84.7444 250.307ZM60.6858 233.271C59.5786 232.084 59.5863 230.21 60.762 229.034L66.4188 234.691C68.3186 232.792 68.3416 229.75 66.536 227.814L60.6858 233.271ZM205.088 81.6925C203.648 80.5302 203.578 78.4096 204.842 77.1454L210.499 82.8023C212.552 80.7494 212.421 77.3318 210.114 75.4686L205.088 81.6925ZM227.159 96.543C227.988 97.7362 227.866 99.3771 226.808 100.434L221.151 94.7776C219.442 96.4869 219.233 99.1539 220.587 101.104L227.159 96.543ZM84.3121 245.623C85.9098 246.722 86.0771 248.974 84.7444 250.307L79.0876 244.65C76.9235 246.814 77.2102 250.446 79.7763 252.213L84.3121 245.623ZM204.842 77.1454C205.96 76.0274 207.717 75.9622 208.911 76.926L203.886 83.1512C205.838 84.7266 208.692 84.609 210.499 82.8023L204.842 77.1454ZM60.762 229.034C61.9713 227.825 63.968 227.832 65.1639 229.114L59.3144 234.571C61.2359 236.63 64.4575 236.653 66.4188 234.691L60.762 229.034Z" fill="#2A2033"/>
</g>
<defs>
<filter id="filter0_d_321_9" x="6" y="6" width="288" height="288" filterUnits="userSpaceOnUse" color-interpolation-filters="sRGB">
<feFlood flood-opacity="0" result="BackgroundImageFix"/>
<feColorMatrix in="SourceAlpha" type="matrix" values="0 0 0 0 0 0 0 0 0 0 0 0 0 0 0 0 0 0 127 0" result="hardAlpha"/>
<feOffset/>
<feGaussianBlur stdDeviation="10"/>
<feComposite in2="hardAlpha" operator="out"/>
<feColorMatrix type="matrix" values="0 0 0 0 0 0 0 0 0 0 0 0 0 0 0 0 0 0 0.2 0"/>
<feBlend mode="normal" in2="BackgroundImageFix" result="effect1_dropShadow_321_9"/>
<feBlend mode="normal" in="SourceGraphic" in2="effect1_dropShadow_321_9" result="shape"/>
</filter>
</defs>
</svg>
